<svg style="display: none;" xmlns="http://www.w3.org/2000/svg" xmlns:xlink="http://www.w3.org/1999/xlink"><defs><symbol viewBox="0 0 16.02 16.02" id="arrow-right-long"><path fill="none" d="M-4-4h24v24H-4z" /><path d="M12 7H0v2h12v3l4-4-4-4z" /></symbol><symbol viewBox="0 0 22.03 22.03" id="calendar"><path d="M19 2h-1V0h-2v2H6V0H4v2H3a2 2 0 00-2 2v16a2 2 0 002 2h16a2 2 0 002-2V4a2 2 0 00-2-2zm0 18H3V7h16z" /><path fill="none" d="M-1-1h24v24H-1z" /></symbol><symbol viewBox="0 0 12.24 12.24" id="chevron-down"><path d="M1.54 2.72L6.13 7.3l4.59-4.58 1.41 1.41-6 6-6-6z" /><path fill="none" d="M-5.87-5.87h24v24h-24z" /></symbol><symbol viewBox="0 0 12.07 12.07" id="chevron-left"><path fill="none" d="M-6-5.91h24v24H-6z" /><path d="M9.36 10.68L4.78 6.09 9.36 1.5 8 .09l-6 6 6 6z" /></symbol><symbol viewBox="0 0 12.14 12" id="chevron-right"><path fill="none" d="M-6.19-6h24v24h-24z" /><path d="M2.4 10.59L7 6 2.4 1.41 3.81 0l6 6-6 6z" /></symbol><symbol viewBox="0 0 12.1 12.1" id="chevron-up"><path d="M1.47 9.47l4.59-4.58 4.59 4.58 1.41-1.41-6-6-6 6z" /><path fill="none" d="M-5.94-5.94h24v24h-24z" /></symbol><symbol viewBox="0 0 20.02 20.02" id="comment"><path d="M20 2a2 2 0 00-2-2H2a2 2 0 00-2 2v12a2 2 0 002 2h14l4 4z" /><path fill="none" d="M-2-2h24v24H-2z" /></symbol><symbol viewBox="0 0 14.01 14.01" id="cross"><path d="M14 1.42L12.6 0 7 5.6 1.42 0 0 1.42 5.6 7 0 12.6 1.42 14 7 8.42 12.6 14l1.4-1.4L8.42 7z" /><path fill="none" d="M-5-5h24v24H-5z" /></symbol><symbol viewBox="0 0 20.02 20.02" id="heart"><path fill="none" d="M-2-2.15h24v24H-2z" /><path d="M10 19.2l-1.44-1.32C3.41 13.21 0 10.13 0 6.35A5.45 5.45 0 015.51.85 6 6 0 0110 2.94 6 6 0 0114.51.85 5.45 5.45 0 0120 6.35c0 3.78-3.4 6.86-8.55 11.54z" /></symbol><symbol viewBox="0 0 21.03 21.03" id="lock"><path fill="none" d="M-1.53-.95h24v24h-24z" /><path d="M16.47 7.05h-1v-2a5 5 0 00-10 0v2h-1a2 2 0 00-2 2v10a2 2 0 002 2h12a2 2 0 002-2v-10a2 2 0 00-2-2zm-6 9a2 2 0 112-2 2 2 0 01-2 2zm3.1-9h-6.2v-2a3.1 3.1 0 116.2 0z" /></symbol><symbol viewBox="0 0 20.34 20.34" id="menu"><path d="M.17 14.13v2h20v-2zm0-5v2h20v-2zm0-5v2h20v-2z" /><path fill="none" d="M20.17 1v18.89h-20V1h20" /></symbol><symbol viewBox="0 0 16.01 16.01" id="person"><path d="M8 8a4 4 0 10-4-4 4 4 0 004 4zm0 2c-2.67 0-8 1.34-8 4v2h16v-2c0-2.65-5.32-4-8-4z" /><path fill="none" d="M-4-4h24v24H-4z" /></symbol><symbol viewBox="0 0 22.05 22.05" id="person-add"><path fill="none" d="M-.95-.95h24v24h-24z" /><path d="M14.05 11.05a4 4 0 10-4-4 4 4 0 004 4zm-9-2v-3h-2v3h-3v2h3v3h2v-3h3v-2zm9 4c-2.67 0-8 1.34-8 4v2h16v-2c0-2.66-5.33-4-8-4z" /></symbol><symbol viewBox="0 0 17.53 17.53" id="search"><path d="M12.53 11h-.79l-.28-.27a6.51 6.51 0 10-.7.7l.27.28v.79l5 5 1.49-1.5zm-6 0A4.5 4.5 0 1111 6.53 4.5 4.5 0 016.53 11z" /><path fill="none" d="M-3-3h24v24H-3z" /></symbol></defs></svg>